<svg width="1928" height="1088" viewBox="0 0 1928 1088" fill="none" xmlns="http://www.w3.org/2000/svg">
<rect width="1928" height="1088" fill="#1E1E1E"/>
<g clip-path="url(#clip0_0_1)" filter="url(#filter0_d_0_1)">
<rect width="1920" height="1080" transform="translate(4)" fill="black"/>
<g filter="url(#filter1_f_0_1)">
<path d="M549 705.54C549 1041.58 242.001 1314 -136.703 1314C-515.406 1314 -1007 1151.32 -1007 815.277C-1007 479.234 -488.482 10.5399 -224.201 256.779C40.0802 503.017 549 369.496 549 705.54Z" fill="url(#paint0_linear_0_1)"/>
</g>
<g filter="url(#filter2_f_0_1)">
<path d="M2414 469.72C2414 837.047 2099.41 1229 1709.51 1229C1319.61 1229 812 957 812 589.673C812 222.346 1345.85 -289.981 1617.94 -20.8185C1890.03 248.344 2414 102.393 2414 469.72Z" fill="url(#paint1_linear_0_1)"/>
</g>
</g>
<defs>
<filter id="filter0_d_0_1" x="0" y="0" width="1928" height="1088" filterUnits="userSpaceOnUse" color-interpolation-filters="sRGB">
<feFlood flood-opacity="0" result="BackgroundImageFix"/>
<feColorMatrix in="SourceAlpha" type="matrix" values="0 0 0 0 0 0 0 0 0 0 0 0 0 0 0 0 0 0 127 0" result="hardAlpha"/>
<feOffset dy="4"/>
<feGaussianBlur stdDeviation="2"/>
<feComposite in2="hardAlpha" operator="out"/>
<feColorMatrix type="matrix" values="0 0 0 0 0 0 0 0 0 0 0 0 0 0 0 0 0 0 0.25 0"/>
<feBlend mode="normal" in2="BackgroundImageFix" result="effect1_dropShadow_0_1"/>
<feBlend mode="normal" in="SourceGraphic" in2="effect1_dropShadow_0_1" result="shape"/>
</filter>
<filter id="filter1_f_0_1" x="-1607" y="-412" width="2756" height="2326" filterUnits="userSpaceOnUse" color-interpolation-filters="sRGB">
<feFlood flood-opacity="0" result="BackgroundImageFix"/>
<feBlend mode="normal" in="SourceGraphic" in2="BackgroundImageFix" result="shape"/>
<feGaussianBlur stdDeviation="300" result="effect1_foregroundBlur_0_1"/>
</filter>
<filter id="filter2_f_0_1" x="212" y="-696" width="2802" height="2525" filterUnits="userSpaceOnUse" color-interpolation-filters="sRGB">
<feFlood flood-opacity="0" result="BackgroundImageFix"/>
<feBlend mode="normal" in="SourceGraphic" in2="BackgroundImageFix" result="shape"/>
<feGaussianBlur stdDeviation="300" result="effect1_foregroundBlur_0_1"/>
</filter>
<linearGradient id="paint0_linear_0_1" x1="-229" y1="188" x2="-229" y2="1314" gradientUnits="userSpaceOnUse">
<stop stop-color="#1B093C"/>
<stop offset="0.529167" stop-color="#430F97"/>
<stop offset="1" stop-color="#D86AFF"/>
</linearGradient>
<linearGradient id="paint1_linear_0_1" x1="1124.9" y1="-42.3721" x2="1642.15" y2="1170.24" gradientUnits="userSpaceOnUse">
<stop stop-color="#1B093C"/>
<stop offset="0.505208" stop-color="#430F97"/>
<stop offset="1" stop-color="#65448B"/>
</linearGradient>
<clipPath id="clip0_0_1">
<rect width="1920" height="1080" fill="white" transform="translate(4)"/>
</clipPath>
</defs>
</svg>
